<svg width="24" height="16" viewBox="0 0 24 16" fill="none" xmlns="http://www.w3.org/2000/svg">
<g clip-path="url(#clip0_10884_451307)">
<mask id="mask0_10884_451307" style="mask-type:luminance" maskUnits="userSpaceOnUse" x="0" y="0" width="24" height="16">
<rect width="24" height="16" fill="white"/>
</mask>
<g mask="url(#mask0_10884_451307)">
<path fill-rule="evenodd" clip-rule="evenodd" d="M0 10.6666H24V16H0V10.6666Z" fill="#14DC5A"/>
<path fill-rule="evenodd" clip-rule="evenodd" d="M0 0H24V6.66667H0V0Z" fill="#0099B5"/>
<path d="M25.9688 6.19788V11.1354H-1.96875V6.19788H25.9688Z" fill="#F7FCFF" stroke="#C51918" stroke-width="0.9375"/>
<path d="M1.50103 3.42456C1.54205 1.49211 3.75234 1.15434 4.50006 1.40601C4.50006 1.40601 2.66995 1.82554 2.6358 3.44116C2.60168 5.05682 4.41412 5.4939 4.41412 5.4939C3.71739 5.73849 1.46022 5.35727 1.50103 3.42456ZM9.90826 4.09937H10.6944L10.0762 4.65503L10.3741 5.40991L9.54693 5.03784L8.80963 5.40991L9.02057 4.65503L8.31451 4.09937H9.23639L9.54596 3.38452L9.90826 4.09937ZM12.9083 4.09937H13.6944L13.0762 4.65503L13.3741 5.40991L12.5469 5.03784L11.8096 5.40991L12.0206 4.65503L11.3145 4.09937H12.2364L12.546 3.38452L12.9083 4.09937ZM15.9083 4.09937H16.6944L16.0762 4.65503L16.3741 5.40991L15.5469 5.03784L14.8096 5.40991L15.0206 4.65503L14.3145 4.09937H15.2364L15.546 3.38452L15.9083 4.09937ZM18.9083 4.09937H19.6944L19.0762 4.65503L19.3741 5.40991L18.5469 5.03784L17.8096 5.40991L18.0206 4.65503L17.3145 4.09937H18.2364L18.546 3.38452L18.9083 4.09937ZM7.09381 4.09644H7.87994L7.26275 4.6521L7.55963 5.40698L6.73248 5.03491L5.99518 5.40698L6.20611 4.6521L5.50006 4.09644H6.42193L6.7315 3.38159L7.09381 4.09644ZM9.86529 2.3396H10.6514L10.0342 2.89526L10.3311 3.65015L9.50396 3.27808L8.76764 3.65015L8.9776 2.89526L8.27154 2.3396H9.19342L9.50299 1.62476L9.86529 2.3396ZM12.8653 2.3396H13.6514L13.0342 2.89526L13.3311 3.65015L12.504 3.27808L11.7676 3.65015L11.9776 2.89526L11.2715 2.3396H12.1934L12.503 1.62476L12.8653 2.3396ZM15.8653 2.3396H16.6514L16.0342 2.89526L16.3311 3.65015L15.504 3.27808L14.7676 3.65015L14.9776 2.89526L14.2715 2.3396H15.1934L15.503 1.62476L15.8653 2.3396ZM18.8653 2.3396H19.6514L19.0342 2.89526L19.3311 3.65015L18.504 3.27808L17.7676 3.65015L17.9776 2.89526L17.2715 2.3396H18.1934L18.503 1.62476L18.8653 2.3396ZM12.9073 0.661865H13.6934L13.0753 1.21655L13.3721 1.97241L12.546 1.60034L11.8087 1.97241L12.0186 1.21655L11.3135 0.661865H12.2354L12.544 -0.0529785L12.9073 0.661865ZM15.9073 0.661865H16.6934L16.0753 1.21655L16.3721 1.97241L15.546 1.60034L14.8087 1.97241L15.0186 1.21655L14.3135 0.661865H15.2354L15.544 -0.0529785L15.9073 0.661865ZM18.9073 0.661865H19.6934L19.0753 1.21655L19.3721 1.97241L18.546 1.60034L17.8087 1.97241L18.0186 1.21655L17.3135 0.661865H18.2354L18.544 -0.0529785L18.9073 0.661865Z" fill="#F7FCFF"/>
</g>
</g>
<defs>
<clipPath id="clip0_10884_451307">
<rect width="24" height="16" rx="1" fill="white"/>
</clipPath>
</defs>
</svg>
