<svg width="24" height="16" viewBox="0 0 24 16" fill="none" xmlns="http://www.w3.org/2000/svg">
<g clip-path="url(#clip0_10884_447079)">
<path fill-rule="evenodd" clip-rule="evenodd" d="M12 0H24V16H12V0Z" fill="#F7FCFF"/>
<path fill-rule="evenodd" clip-rule="evenodd" d="M0 0H12V16H0V0Z" fill="#36A400"/>
<path d="M12.0281 2.8866C13.9763 2.8866 15.7199 3.66309 16.8914 4.88562C16.0484 4.43232 15.0435 4.16882 13.9646 4.16882C10.9862 4.16897 8.57216 6.17418 8.57202 8.64832C8.57202 11.1226 10.9861 13.1286 13.9646 13.1288C14.8932 13.1288 15.7671 12.9331 16.53 12.5897C15.3753 13.6099 13.7848 14.2411 12.0281 14.2411C8.50095 14.241 5.64164 11.6995 5.64136 8.56433C5.64136 5.42893 8.50077 2.88669 12.0281 2.8866ZM15.9119 7.953L17.9998 8.61804L15.9119 9.41296V11.4706L14.6345 9.69812L12.2976 10.4462L13.533 8.61804L12.2976 6.90125L14.5261 7.44617L16.0769 5.88367L15.9119 7.953Z" fill="#FF0000"/>
</g>
<defs>
<clipPath id="clip0_10884_447079">
<rect width="24" height="16" rx="1" fill="white"/>
</clipPath>
</defs>
</svg>
